<svg width="32" height="32" viewBox="0 0 32 32" fill="none" xmlns="http://www.w3.org/2000/svg">
<path d="M30.6667 17.3332V14.6665" stroke="white" stroke-width="2" stroke-linecap="round" stroke-linejoin="round"/>
<path d="M6.66668 24H4.00001C3.29277 24 2.61449 23.719 2.11439 23.219C1.6143 22.7189 1.33334 22.0406 1.33334 21.3333V10.6667C1.33334 9.95942 1.6143 9.28115 2.11439 8.78105C2.61449 8.28095 3.29277 8 4.00001 8H8.25334M20 8H22.6667C23.3739 8 24.0522 8.28095 24.5523 8.78105C25.0524 9.28115 25.3333 9.95942 25.3333 10.6667V21.3333C25.3333 22.0406 25.0524 22.7189 24.5523 23.219C24.0522 23.719 23.3739 24 22.6667 24H18.4133" stroke="white" stroke-width="2" stroke-linecap="round" stroke-linejoin="round"/>
<path d="M14.6667 8L9.33334 16H17.3333L12 24" stroke="white" stroke-width="2" stroke-linecap="round" stroke-linejoin="round"/>
</svg>
